<svg width="27" height="27" viewBox="0 0 27 27" fill="none" xmlns="http://www.w3.org/2000/svg">
<path d="M7.875 9H4.5C3.2625 9 2.25 7.9875 2.25 6.75V4.5C2.25 3.2625 3.2625 2.25 4.5 2.25H7.875C9.1125 2.25 10.125 3.2625 10.125 4.5V6.75C10.125 7.9875 9.1125 9 7.875 9ZM23.4 7.875H19.35C18.6075 7.875 18 7.2675 18 6.525V4.725C18 3.9825 18.6075 3.375 19.35 3.375H23.4C24.1425 3.375 24.75 3.9825 24.75 4.725V6.525C24.75 7.2675 24.1425 7.875 23.4 7.875V7.875ZM23.4 16.3125H19.35C18.6075 16.3125 18 15.705 18 14.9625V13.1625C18 12.42 18.6075 11.8125 19.35 11.8125H23.4C24.1425 11.8125 24.75 12.42 24.75 13.1625V14.9625C24.75 15.705 24.1425 16.3125 23.4 16.3125Z" stroke="#3F7090" stroke-width="1.5" stroke-linecap="round" stroke-linejoin="round"/>
<g opacity="0.4">
<path d="M10.125 5.625H18" stroke="#3F7090" stroke-width="1.5" stroke-miterlimit="10" stroke-linecap="round" stroke-linejoin="round"/>
<path d="M14.0625 5.625V20.25C14.0625 21.4875 15.075 22.5 16.3125 22.5H18" fill="white"/>
<path d="M14.0625 5.625V20.25C14.0625 21.4875 15.075 22.5 16.3125 22.5H18M14.0625 14.0625H18" stroke="#3F7090" stroke-width="1.5" stroke-miterlimit="10" stroke-linecap="round" stroke-linejoin="round"/>
</g>
<path d="M23.4 24.75H19.35C18.6075 24.75 18 24.1425 18 23.4V21.6C18 20.8575 18.6075 20.25 19.35 20.25H23.4C24.1425 20.25 24.75 20.8575 24.75 21.6V23.4C24.75 24.1425 24.1425 24.75 23.4 24.75Z" stroke="#3F7090" stroke-width="1.5" stroke-linecap="round" stroke-linejoin="round"/>
</svg>
