<svg width="24" height="24" viewBox="0 0 24 24" fill="none" xmlns="http://www.w3.org/2000/svg">
<path d="M13.2599 3.59997L5.04985 12.29C4.73985 12.62 4.43985 13.27 4.37985 13.72L4.00985 16.96C3.87985 18.13 4.71985 18.93 5.87985 18.73L9.09985 18.18C9.54985 18.1 10.1799 17.77 10.4899 17.43L18.6999 8.73997C20.1199 7.23997 20.7599 5.52997 18.5499 3.43997C16.3499 1.36997 14.6799 2.09997 13.2599 3.59997V3.59997Z" stroke="#3F7090" stroke-width="1.5" stroke-miterlimit="10" stroke-linecap="round" stroke-linejoin="round"/>
<path opacity="0.4" d="M11.89 5.04999C12.0996 6.39084 12.7486 7.62412 13.735 8.55623C14.7214 9.48835 15.9894 10.0665 17.34 10.2M3 22H21" stroke="#3F7090" stroke-width="1.5" stroke-miterlimit="10" stroke-linecap="round" stroke-linejoin="round"/>
</svg>
