<svg width="30" height="26" viewBox="0 0 30 26" fill="none" xmlns="http://www.w3.org/2000/svg">
<path d="M27.2421 6.86865H19.8124" stroke="#3F7090" stroke-width="1.5" stroke-miterlimit="10" stroke-linecap="round" stroke-linejoin="round"/>
<g opacity="0.4">
<path d="M7.42968 6.86861H2.47656M12.3828 10.5671C12.9519 10.5671 13.5155 10.4714 14.0413 10.2855C14.5672 10.0997 15.0449 9.82724 15.4474 9.48381C15.8498 9.14038 16.1691 8.73266 16.3869 8.28395C16.6047 7.83523 16.7168 7.3543 16.7168 6.86861C16.7168 6.38293 16.6047 5.90199 16.3869 5.45328C16.1691 5.00456 15.8498 4.59685 15.4474 4.25342C15.0449 3.90998 14.5672 3.63756 14.0413 3.45169C13.5155 3.26583 12.9519 3.17017 12.3828 3.17017C11.2334 3.17017 10.131 3.55982 9.31821 4.25342C8.50543 4.94701 8.04882 5.88772 8.04882 6.86861C8.04882 7.8495 8.50543 8.79022 9.31821 9.48381C10.131 10.1774 11.2334 10.5671 12.3828 10.5671V10.5671Z" stroke="#3F7090" stroke-width="1.5" stroke-miterlimit="10" stroke-linecap="round" stroke-linejoin="round"/>
</g>
<path d="M9.90624 18.4922H2.47656" stroke="#3F7090" stroke-width="1.5" stroke-miterlimit="10" stroke-linecap="round" stroke-linejoin="round"/>
<g opacity="0.4">
<path d="M27.2422 18.4921H22.289M17.3359 22.1906C18.4854 22.1906 19.5877 21.8009 20.4005 21.1073C21.2133 20.4138 21.6699 19.473 21.6699 18.4921C21.6699 17.5113 21.2133 16.5705 20.4005 15.877C19.5877 15.1834 18.4854 14.7937 17.3359 14.7937C16.1865 14.7937 15.0841 15.1834 14.2713 15.877C13.4586 16.5705 13.002 17.5113 13.002 18.4921C13.002 19.473 13.4586 20.4138 14.2713 21.1073C15.0841 21.8009 16.1865 22.1906 17.3359 22.1906V22.1906Z" stroke="#3F7090" stroke-width="1.5" stroke-miterlimit="10" stroke-linecap="round" stroke-linejoin="round"/>
</g>
</svg>
