<svg width="196" height="505" viewBox="0 0 196 505" fill="none" xmlns="http://www.w3.org/2000/svg">
<path d="M195 125.946C195 125.946 195 192.446 195 226.446C195 304.979 195 234.5 195 274.877C194.683 317 195 289 195 331.5C195 360 195 358 195 388C195 420 195 442.5 195 442.5C195 442.5 198.632 455.389 166.961 471.5C124.993 492.848 136.422 502.5 119.422 504.5C87.3828 499 104.733 380.21 83.4796 354.642C67.6256 335.57 34.384 322.53 36.6925 297.841C39.8577 263.988 104.005 249.64 96.3959 216.502C88.2115 180.857 22.2736 190.509 4.68498 158.441C-8.59983 134.22 9.4744 103.361 20.4324 78.0033C32.8034 49.3753 42.1212 -5.57531 72.5038 1.49999C121.876 12.9974 136.088 78.6261 172.867 113.501C181.71 121.886 195 125.946 195 125.946Z" fill="#F79EA4" fill-opacity="0.6"/>
</svg>
