<svg width="40" height="40" viewBox="0 0 40 40" fill="none" xmlns="http://www.w3.org/2000/svg">
<path d="M16.6667 36.6667H23.3333C31.6667 36.6667 35 33.3333 35 25V15C35 6.66667 31.6667 3.33333 23.3333 3.33333H16.6667C8.33333 3.33333 5 6.66667 5 15V25C5 33.3333 8.33333 36.6667 16.6667 36.6667Z" stroke="#848382" stroke-width="1.5" stroke-linecap="round" stroke-linejoin="round"/>
<path d="M27.5 12.6333V14.3C27.5 15.6667 26.3833 16.8 25 16.8H15C13.6333 16.8 12.5 15.6833 12.5 14.3V12.6333C12.5 11.2667 13.6167 10.1333 15 10.1333H25C26.3833 10.1333 27.5 11.25 27.5 12.6333Z" stroke="black" stroke-width="1.5" stroke-linecap="round" stroke-linejoin="round"/>
<path d="M13.5601 23.3333H13.5801M19.9917 23.3333H20.0117M26.4234 23.3333H26.4434M13.5601 29.1667H13.5801M19.9917 29.1667H20.0117M26.4234 29.1667H26.4434" stroke="black" stroke-width="2" stroke-linecap="round" stroke-linejoin="round"/>
</svg>
