<svg width="57" height="57" viewBox="0 0 57 57" fill="none" xmlns="http://www.w3.org/2000/svg">
<path d="M40.5175 41.4351V37.5725M37.2162 28.9988H40.0175C40.2936 28.9988 40.5175 29.2226 40.5175 29.4988V37.5725M37.2162 28.9988V20.9988C37.2162 20.1703 36.5446 19.4988 35.7162 19.4988H19.7837M37.2162 28.9988L32.8937 28.9987M19.7837 19.4988V11.6875C19.7837 11.1352 19.336 10.6875 18.7837 10.6875H15.3662M19.7837 19.4988V23.2473M45.125 37.5725H40.5175" stroke="#22202A" stroke-width="1.5" stroke-miterlimit="10" stroke-linecap="round"/>
<path d="M22.5625 46.74C29.1209 46.74 34.4375 41.4233 34.4375 34.865C34.4375 28.3066 29.1209 22.99 22.5625 22.99C16.0041 22.99 10.6875 28.3066 10.6875 34.865C10.6875 41.4233 16.0041 46.74 22.5625 46.74Z" stroke="#D1D1D6" stroke-width="1.5" stroke-miterlimit="10"/>
<path opacity="0.5" d="M22.5625 42.0613C26.5368 42.0613 29.7587 38.8394 29.7587 34.865C29.7587 30.8907 26.5368 27.6688 22.5625 27.6688C18.5881 27.6688 15.3662 30.8907 15.3662 34.865C15.3662 38.8394 18.5881 42.0613 22.5625 42.0613Z" stroke="#22202A" stroke-miterlimit="10"/>
<path d="M40.5176 46.7401C41.9211 46.7401 43.0588 45.6023 43.0588 44.1988C43.0588 42.7953 41.9211 41.6576 40.5176 41.6576C39.1141 41.6576 37.9763 42.7953 37.9763 44.1988C37.9763 45.6023 39.1141 46.7401 40.5176 46.7401Z" stroke="#D1D1D6" stroke-miterlimit="10"/>
</svg>
