<svg width="33" height="33" viewBox="0 0 33 33" fill="none" xmlns="http://www.w3.org/2000/svg">
<path opacity="0.4" d="M19.25 12.7875V16.8438H22.8662C23.1275 16.8438 23.32 17.0775 23.265 17.3387L22.7425 19.9513C22.7013 20.1438 22.5363 20.2812 22.3438 20.2812H19.25V30.25H15.125V20.2812H12.7875C12.5538 20.2812 12.375 20.1025 12.375 19.8687V17.2563C12.375 17.0225 12.5538 16.8438 12.7875 16.8438H15.125V12.375C15.125 10.0925 16.9675 8.25 19.25 8.25H22.9625C23.1963 8.25 23.375 8.42875 23.375 8.6625V11.9625C23.375 12.1962 23.1963 12.375 22.9625 12.375H19.6625C19.4288 12.375 19.25 12.5538 19.25 12.7875V12.7875Z" stroke="black" stroke-width="1.5" stroke-miterlimit="10" stroke-linecap="round"/>
<path d="M20.625 30.25H12.375C5.5 30.25 2.75 27.5 2.75 20.625V12.375C2.75 5.5 5.5 2.75 12.375 2.75H20.625C27.5 2.75 30.25 5.5 30.25 12.375V20.625C30.25 27.5 27.5 30.25 20.625 30.25Z" stroke="black" stroke-width="1.5" stroke-linecap="round" stroke-linejoin="round"/>
</svg>
