<svg width="26" height="40" viewBox="0 0 26 40" fill="none" xmlns="http://www.w3.org/2000/svg">
<path fill-rule="evenodd" clip-rule="evenodd" d="M13.6725 26.0059C13.6725 25.5917 13.3367 25.2559 12.9225 25.2559C12.5083 25.2559 12.1725 25.5917 12.1725 26.0059V32.3735H6.59424C6.18003 32.3735 5.84424 32.7093 5.84424 33.1235C5.84424 33.5377 6.18003 33.8735 6.59424 33.8735H12.1725V38.5588C12.1725 38.973 12.5083 39.3088 12.9225 39.3088C13.3367 39.3088 13.6725 38.973 13.6725 38.5588V33.8735H19.1472C19.5614 33.8735 19.8972 33.5377 19.8972 33.1235C19.8972 32.7093 19.5614 32.3735 19.1472 32.3735H13.6725V26.0059Z" fill="black"/>
<circle cx="13" cy="13" r="11.75" stroke="#848382" stroke-width="1.5"/>
</svg>
