<svg width="1186" height="50" viewBox="0 0 1186 50" fill="none" xmlns="http://www.w3.org/2000/svg">
<path fill-rule="evenodd" clip-rule="evenodd" d="M422.644 25.149L424.333 24.7898C478.758 13.2164 530.439 2.22655 593.137 2.00393C655.835 2.22655 707.517 13.2164 761.942 24.7898L763.631 25.149C847.953 43.0777 891.043 47.2245 919.793 47.2245C942.752 47.2245 1106.34 48.2052 1185.27 48.6955L1185.27 47.6955C1106.35 47.2052 942.756 46.2245 919.793 46.2245C891.143 46.2245 848.132 42.0932 763.839 24.1709L762.119 23.805C709.216 12.5554 658.812 1.83699 598.332 1.04705L598.332 1.01017C596.592 0.999825 594.861 0.997815 593.137 1.00393C591.414 0.997815 589.683 0.999825 587.942 1.01017L587.943 1.04705C527.463 1.83699 477.059 12.5554 424.156 23.805L422.436 24.1709C338.143 42.0932 295.132 46.2245 266.481 46.2245C243.519 46.2245 79.9245 47.2052 0.999878 47.6955L1.00609 48.6955C79.9335 48.2052 243.523 47.2245 266.481 47.2245C295.232 47.2245 338.321 43.0777 422.644 25.149Z" fill="#848382"/>
<path d="M424.333 24.7898L424.437 25.2789L424.333 24.7898ZM422.644 25.149L422.748 25.6381L422.748 25.6381L422.644 25.149ZM593.137 2.00393L593.139 1.50392L593.136 1.50393L593.137 2.00393ZM761.942 24.7898L761.838 25.2789V25.2789L761.942 24.7898ZM763.631 25.149L763.527 25.6381L763.631 25.149ZM1185.27 48.6955L1185.27 49.1955L1185.77 49.1986L1185.77 48.6986L1185.27 48.6955ZM1185.27 47.6955L1185.77 47.6986L1185.78 47.1986L1185.28 47.1955L1185.27 47.6955ZM763.839 24.1709L763.735 24.6599V24.6599L763.839 24.1709ZM762.119 23.805L762.015 24.2941L762.119 23.805ZM598.332 1.04705L597.832 1.04374L597.829 1.54052L598.326 1.54701L598.332 1.04705ZM598.332 1.01017L598.832 1.01348L598.836 0.513149L598.335 0.510176L598.332 1.01017ZM593.137 1.00393L593.136 1.50393L593.139 1.50392L593.137 1.00393ZM587.942 1.01017L587.939 0.510176L587.439 0.513149L587.442 1.01348L587.942 1.01017ZM587.943 1.04705L587.949 1.54701L588.446 1.54052L588.443 1.04374L587.943 1.04705ZM424.156 23.805L424.26 24.2941L424.156 23.805ZM422.436 24.1709L422.54 24.6599L422.54 24.6599L422.436 24.1709ZM0.999878 47.6955L0.996772 47.1955L0.496781 47.1986L0.499888 47.6986L0.999878 47.6955ZM1.00609 48.6955L0.5061 48.6986L0.509206 49.1986L1.0092 49.1955L1.00609 48.6955ZM424.229 24.3008L422.54 24.6599L422.748 25.6381L424.437 25.2789L424.229 24.3008ZM593.136 1.50393C530.38 1.72676 478.651 12.7279 424.229 24.3008L424.437 25.2789C478.865 13.7049 530.499 2.72634 593.139 2.50392L593.136 1.50393ZM593.136 2.50392C655.775 2.72634 707.41 13.7049 761.838 25.2789L762.046 24.3008C707.623 12.7279 655.895 1.72676 593.139 1.50393L593.136 2.50392ZM761.838 25.2789L763.527 25.6381L763.735 24.6599L762.046 24.3008L761.838 25.2789ZM763.527 25.6381C847.864 43.5699 890.992 47.7245 919.793 47.7245V46.7245C891.093 46.7245 848.043 42.5854 763.735 24.6599L763.527 25.6381ZM919.793 47.7245C942.75 47.7245 1106.34 48.7052 1185.27 49.1955L1185.27 48.1955C1106.35 47.7052 942.754 46.7245 919.793 46.7245V47.7245ZM1185.77 48.6986L1185.77 47.6986L1184.77 47.6925L1184.77 48.6925L1185.77 48.6986ZM1185.28 47.1955C1106.35 46.7052 942.758 45.7245 919.793 45.7245V46.7245C942.754 46.7245 1106.35 47.7052 1185.27 48.1955L1185.28 47.1955ZM919.793 45.7245C891.194 45.7245 848.221 41.601 763.943 23.6818L763.735 24.6599C848.043 42.5854 891.093 46.7245 919.793 46.7245V45.7245ZM763.943 23.6818L762.223 23.316L762.015 24.2941L763.735 24.6599L763.943 23.6818ZM762.223 23.316C709.323 12.0669 658.874 1.33776 598.339 0.547093L598.326 1.54701C658.75 2.33622 709.109 13.0438 762.015 24.2941L762.223 23.316ZM597.832 1.00686L597.832 1.04374L598.832 1.05036L598.832 1.01348L597.832 1.00686ZM593.139 1.50392C594.861 1.49782 596.591 1.49983 598.329 1.51016L598.335 0.510176C596.594 0.499825 594.86 0.497813 593.136 0.503929L593.139 1.50392ZM593.139 0.503929C591.414 0.497813 589.681 0.499825 587.939 0.510176L587.945 1.51016C589.684 1.49983 591.414 1.49782 593.136 1.50392L593.139 0.503929ZM587.442 1.01348L587.443 1.05036L588.443 1.04374L588.442 1.00686L587.442 1.01348ZM424.26 24.2941C477.166 13.0438 527.525 2.33622 587.949 1.54701L587.936 0.547093C527.401 1.33776 476.952 12.0669 424.052 23.316L424.26 24.2941ZM422.54 24.6599L424.26 24.2941L424.052 23.316L422.332 23.6818L422.54 24.6599ZM266.481 46.7245C295.182 46.7245 338.232 42.5854 422.54 24.6599L422.332 23.6818C338.054 41.601 295.081 45.7245 266.481 45.7245V46.7245ZM1.00298 48.1955C79.929 47.7052 243.521 46.7245 266.481 46.7245V45.7245C243.517 45.7245 79.9199 46.7052 0.996772 47.1955L1.00298 48.1955ZM1.50608 48.6924L1.49987 47.6924L0.499888 47.6986L0.5061 48.6986L1.50608 48.6924ZM266.481 46.7245C243.521 46.7245 79.929 47.7052 1.00298 48.1955L1.0092 49.1955C79.9381 48.7052 243.525 47.7245 266.481 47.7245V46.7245ZM422.54 24.6599C338.232 42.5854 295.182 46.7245 266.481 46.7245V47.7245C295.282 47.7245 338.41 43.5699 422.748 25.6381L422.54 24.6599Z" fill="black"/>
</svg>
