<svg width="51" height="51" viewBox="0 0 51 51" fill="none" xmlns="http://www.w3.org/2000/svg">
<path d="M6.375 19.3588V31.62C6.375 36.125 6.375 36.125 10.625 38.9938L22.3125 45.7513C24.0762 46.7713 26.945 46.7713 28.6875 45.7513L40.375 38.9938C44.625 36.125 44.625 36.125 44.625 31.6413V19.3588C44.625 14.875 44.625 14.875 40.375 12.0063L28.6875 5.24876C26.945 4.22876 24.0762 4.22876 22.3125 5.24876L10.625 12.0063C6.375 14.875 6.375 14.875 6.375 19.3588Z" stroke="black" stroke-width="1.5" stroke-linecap="round" stroke-linejoin="round"/>
<path d="M25.5 31.875C27.1908 31.875 28.8123 31.2034 30.0078 30.0078C31.2034 28.8123 31.875 27.1908 31.875 25.5C31.875 23.8092 31.2034 22.1877 30.0078 20.9922C28.8123 19.7966 27.1908 19.125 25.5 19.125C23.8092 19.125 22.1877 19.7966 20.9922 20.9922C19.7966 22.1877 19.125 23.8092 19.125 25.5C19.125 27.1908 19.7966 28.8123 20.9922 30.0078C22.1877 31.2034 23.8092 31.875 25.5 31.875V31.875Z" stroke="#A6A6A6" stroke-width="1.5" stroke-linecap="round" stroke-linejoin="round"/>
</svg>
