<svg width="47" height="46" viewBox="0 0 47 46" fill="none" xmlns="http://www.w3.org/2000/svg">
<path opacity="0.5" d="M19.9198 32.5576C19.9198 42.0627 36.0783 43.0132 36.0783 32.5576V24.9536" stroke="#22202A"/>
<path opacity="0.5" d="M36.0784 22.0831H36.097V22.1017H36.0784V22.0831Z" stroke="#22202A" stroke-linejoin="round"/>
<path d="M38.9298 22.1021C38.9298 23.677 37.6532 24.9536 36.0783 24.9536C34.5035 24.9536 33.2268 23.677 33.2268 22.1021C33.2268 20.5273 34.5035 19.2506 36.0783 19.2506C37.6532 19.2506 38.9298 20.5273 38.9298 22.1021Z" stroke="#22202A" stroke-width="1.5"/>
<path d="M15.1673 9.74561V9.74561C13.5319 9.74561 12.7143 9.74561 12.0862 10.0559C11.4953 10.3477 11.0169 10.8261 10.725 11.417C10.4148 12.0451 10.4148 12.8628 10.4148 14.4981V23.0526C10.4148 26.3234 10.4148 27.9587 11.0353 29.2149C11.6191 30.3967 12.5757 31.3534 13.7575 31.9371C15.0137 32.5576 16.6491 32.5576 19.9198 32.5576V32.5576C23.1905 32.5576 24.8259 32.5576 26.0821 31.9371C27.2639 31.3534 28.2206 30.3967 28.8043 29.2149C29.4248 27.9587 29.4248 26.3234 29.4248 23.0526V13.5476C29.4248 12.8022 29.4248 12.4295 29.3589 12.1203C29.1122 10.9626 28.2078 10.0582 27.0501 9.8115C26.7409 9.74561 26.3682 9.74561 25.6228 9.74561V9.74561M15.1673 9.74561C15.1673 10.7955 16.0184 11.6466 17.0683 11.6466C18.1182 11.6466 18.9693 10.7955 18.9693 9.74561C18.9693 8.69572 18.1182 7.84461 17.0683 7.84461C16.0184 7.84461 15.1673 8.69572 15.1673 9.74561ZM25.6228 9.74561C25.6228 10.7955 24.7717 11.6466 23.7218 11.6466C22.6719 11.6466 21.8208 10.7955 21.8208 9.74561C21.8208 8.69572 22.6719 7.84461 23.7218 7.84461C24.7717 7.84461 25.6228 8.69572 25.6228 9.74561Z" stroke="#22202A"/>
</svg>
