<svg width="36" height="36" viewBox="0 0 36 36" fill="none" xmlns="http://www.w3.org/2000/svg">
<path d="M23.58 14.535C24.3147 15.2667 24.8977 16.1363 25.2955 17.0938C25.6933 18.0514 25.8981 19.0781 25.8981 20.115C25.8981 21.1519 25.6933 22.1786 25.2955 23.1362C24.8977 24.0937 24.3147 24.9633 23.58 25.695C22.8482 26.4295 21.9786 27.0124 21.0211 27.4101C20.0635 27.8077 19.0369 28.0125 18 28.0125C16.9632 28.0125 15.9365 27.8077 14.979 27.4101C14.0214 27.0124 13.1518 26.4295 12.42 25.695C11.6853 24.9633 11.1023 24.0937 10.7045 23.1362C10.3067 22.1786 10.1019 21.1519 10.1019 20.115C10.1019 19.0781 10.3067 18.0514 10.7045 17.0938C11.1023 16.1363 11.6853 15.2667 12.42 14.535C13.1518 13.8005 14.0214 13.2176 14.979 12.8199C15.9365 12.4222 16.9632 12.2175 18 12.2175C19.0369 12.2175 20.0635 12.4222 21.0211 12.8199C21.9786 13.2176 22.8482 13.8005 23.58 14.535Z" stroke="black" stroke-width="1.509" stroke-linecap="round" stroke-linejoin="round"/>
<path opacity="0.4" d="M18 20.115L15.615 22.5" stroke="black" stroke-width="1.509" stroke-linecap="round" stroke-linejoin="round"/>
<path opacity="0.4" d="M28.6049 9.50855C28.8299 9.73355 28.8299 10.1085 28.6049 10.3485C28.3799 10.5735 28.0049 10.5735 27.7649 10.3485C27.5249 10.1235 27.5399 9.74855 27.7649 9.50855C27.9899 9.26855 28.3799 9.26855 28.6049 9.50855ZM8.23345 29.88C8.45845 30.105 8.45845 30.48 8.23345 30.72C8.00845 30.96 7.63345 30.945 7.39345 30.72C7.28526 30.607 7.22487 30.4565 7.22487 30.3C7.22487 30.1436 7.28526 29.9931 7.39345 29.88C7.61845 29.64 8.00845 29.64 8.23345 29.88ZM32.8199 19.698C33.0449 19.923 33.0449 20.298 32.8199 20.538C32.5949 20.763 32.2199 20.763 31.9799 20.538C31.7399 20.313 31.7549 19.938 31.9799 19.698C32.2049 19.458 32.5949 19.458 32.8199 19.698ZM4.00345 19.698C4.22845 19.923 4.22845 20.298 4.00345 20.538C3.77845 20.778 3.40345 20.763 3.16345 20.538C3.05526 20.425 2.99487 20.2745 2.99487 20.118C2.99487 19.9616 3.05526 19.8111 3.16345 19.698C3.40345 19.458 3.77845 19.458 4.00345 19.698ZM28.6049 29.88C28.8299 30.105 28.8299 30.48 28.6049 30.72C28.3799 30.945 28.0049 30.945 27.7649 30.72C27.5249 30.495 27.5399 30.12 27.7649 29.88C28.0049 29.64 28.3799 29.64 28.6049 29.88ZM8.23345 9.50855C8.45845 9.73355 8.45845 10.1085 8.23345 10.3485C8.00845 10.5885 7.63345 10.5735 7.39345 10.3485C7.28526 10.2355 7.22487 10.085 7.22487 9.92855C7.22487 9.77206 7.28526 9.62161 7.39345 9.50855C7.61845 9.26855 8.00845 9.26855 8.23345 9.50855ZM18.4229 5.27855C18.6479 5.50355 18.6479 5.87855 18.4229 6.11855C18.1979 6.35855 17.8229 6.34355 17.5829 6.11855C17.3429 5.89355 17.3579 5.51855 17.5829 5.27855C17.8079 5.03855 18.1979 5.05355 18.4229 5.27855Z" stroke="black" stroke-width="1.5" stroke-linecap="round" stroke-linejoin="round"/>
</svg>
