<svg width="24" height="24" viewBox="0 0 24 24" fill="none" xmlns="http://www.w3.org/2000/svg">
<path d="M15.59 12.26C16.2637 12.2601 16.9308 12.1276 17.5532 11.8699C18.1757 11.6122 18.7413 11.2344 19.2178 10.7582C19.6942 10.2819 20.0722 9.71644 20.3301 9.09409C20.5881 8.47174 20.7209 7.80468 20.721 7.131C20.7211 6.45732 20.5886 5.79021 20.3309 5.16776C20.0732 4.54531 19.6954 3.97971 19.2192 3.50325C18.7429 3.02679 18.1774 2.64881 17.5551 2.39088C16.9327 2.13295 16.2657 2.00013 15.592 2C14.2314 2 12.9266 2.54048 11.9645 3.50254C11.0025 4.4646 10.462 5.76944 10.462 7.13C10.462 8.49056 11.0025 9.7954 11.9645 10.7575C12.9266 11.7195 14.2314 12.26 15.592 12.26H15.59Z" stroke="#3F7090" stroke-width="1.5" stroke-miterlimit="10"/>
<path opacity="0.4" d="M6.36 19.4408C7.17687 19.4408 7.96028 19.1163 8.53789 18.5387C9.1155 17.961 9.44 17.1776 9.44 16.3608C9.44 15.5439 9.1155 14.7605 8.53789 14.1829C7.96028 13.6053 7.17687 13.2808 6.36 13.2808C5.54313 13.2808 4.75972 13.6053 4.18211 14.1829C3.6045 14.7605 3.28 15.5439 3.28 16.3608C3.28 17.1776 3.6045 17.961 4.18211 18.5387C4.75972 19.1163 5.54313 19.4408 6.36 19.4408ZM16.62 21.9988C17.299 21.9988 17.9501 21.729 18.4302 21.249C18.9103 20.7689 19.18 20.1177 19.18 19.4388C19.18 18.7598 18.9103 18.1087 18.4302 17.6286C17.9501 17.1485 17.299 16.8788 16.62 16.8788C15.941 16.8788 15.2899 17.1485 14.8098 17.6286C14.3297 18.1087 14.06 18.7598 14.06 19.4388C14.06 20.1177 14.3297 20.7689 14.8098 21.249C15.2899 21.729 15.941 21.9988 16.62 21.9988Z" stroke="#3F7090" stroke-width="1.5" stroke-miterlimit="10"/>
</svg>
