<svg width="27" height="27" viewBox="0 0 27 27" fill="none" xmlns="http://www.w3.org/2000/svg">
<path d="M5.44932 15.5325L14.2386 5.43263C15.6949 3.75923 18.232 3.58321 19.9054 5.03947C21.5788 6.49573 21.7548 9.03282 20.2985 10.7062L18.9812 12.22C18.3306 11.9572 17.6197 11.8124 16.875 11.8124C13.7684 11.8124 11.25 14.3308 11.25 17.4374M5.44932 15.5325C3.99306 17.2059 4.16908 19.743 5.84248 21.1992C7.9166 23.0042 10.409 22.0703 11.9988 20.2435C11.5225 19.4176 11.25 18.4593 11.25 17.4374M5.44932 15.5325L10.2834 9.97756M11.25 17.4374C11.25 15.8564 11.9023 14.4278 12.9524 13.4059" stroke="#3F7090" stroke-width="1.5"/>
<path opacity="0.5" d="M10.2834 9.97754C11.1675 11.5317 11.9547 12.5837 12.9524 13.4058" stroke="#3F7090" stroke-width="1.5"/>
<path d="M17.9554 6.17138C16.5059 5.79744 15.627 6.80743 15.1875 7.31242" stroke="#3F7090" stroke-width="1.5" stroke-linecap="round"/>
<path d="M22.5 17.4375C22.5 20.5441 19.9816 23.0625 16.875 23.0625C13.7684 23.0625 11.25 20.5441 11.25 17.4375C11.25 14.3309 13.7684 11.8125 16.875 11.8125C19.9816 11.8125 22.5 14.3309 22.5 17.4375Z" stroke="#3F7090" stroke-width="1.5"/>
<path opacity="0.5" d="M13.0717 18.4565L20.6783 16.4183" stroke="#3F7090" stroke-width="1.5" stroke-linecap="round"/>
</svg>
