<svg width="343" height="303" viewBox="0 0 343 303" fill="none" xmlns="http://www.w3.org/2000/svg">
<path d="M330.5 2.85208e-05C330.5 2.85208e-05 342.466 24.5 342.897 43.904C344.053 96 314.687 131.31 287.053 145.5C250.053 164.5 221.035 164.792 192.2 190.393C159.948 219.028 172.653 293.356 130.419 302.182C88.2538 310.994 66.4549 246.18 29.2765 224.442C3.45848 209.346 9.96727e-06 205.5 9.96727e-06 205.5C9.96727e-06 205.5 -1.24591e-05 178.629 9.96727e-06 131C1.96311e-05 110.476 0.000351085 92 3.9412e-05 76.5C-0.000113045 60.8466 0.000280185 37 0.000280185 37L9.96727e-06 0H36C36 0 134.036 4.37796e-05 148.5 4.37796e-05C227.581 4.37796e-05 330.5 2.85208e-05 330.5 2.85208e-05Z" fill="#F2CC8F"/>
</svg>
